# Blender 4.2.2 LTS
# www.blender.org
o Cube
v 0.500000 0.500000 -0.500000 0.0000 0.0000 0.0000
v 0.500000 -0.500000 -0.500000 0.0000 0.0000 0.0000
v 0.500000 0.500000 0.500000 0.0000 0.0000 0.0000
v 0.500000 -0.500000 0.500000 0.0000 0.0000 0.0000
v -0.500000 0.500000 -0.500000 0.0000 0.0000 0.0000
v -0.500000 -0.500000 -0.500000 0.0000 0.0000 0.0000
v -0.500000 0.500000 0.500000 0.0000 0.0000 0.0000
v -0.500000 -0.500000 0.500000 0.0000 0.0000 0.0000
v 0.500000 0.450000 -0.500000 0.7725 0.7725 0.7725
v -0.500000 0.450000 0.500000 0.7725 0.7725 0.7725
v 0.500000 0.450000 0.500000 0.7725 0.7725 0.7725
v -0.500000 0.450000 -0.500000 0.7725 0.7725 0.7725
v -0.500000 -0.500000 -0.450000 0.7725 0.7725 0.7725
v 0.500000 0.500000 -0.450000 0.7725 0.7725 0.7725
v -0.500000 0.500000 -0.450000 0.7725 0.7725 0.7725
v 0.500000 -0.500000 -0.450000 0.7725 0.7725 0.7725
v 0.500000 0.450000 -0.450000 1.0000 1.0000 1.0000
v -0.500000 0.450000 -0.450000 1.0000 1.0000 1.0000
v 0.500000 -0.452500 -0.500000 0.7725 0.7725 0.7725
v 0.500000 -0.452500 0.500000 0.7725 0.7725 0.7725
v -0.500000 -0.452500 -0.500000 0.7725 0.7725 0.7725
v -0.500000 -0.452500 0.500000 0.7725 0.7725 0.7725
v -0.500000 -0.452500 -0.450000 1.0000 1.0000 1.0000
v 0.500000 -0.452500 -0.450000 1.0000 1.0000 1.0000
v -0.500000 -0.500000 0.452500 0.7725 0.7725 0.7725
v 0.500000 0.500000 0.452500 0.7725 0.7725 0.7725
v 0.500000 0.450000 0.452500 1.0000 1.0000 1.0000
v -0.500000 0.500000 0.452500 0.7725 0.7725 0.7725
v 0.500000 -0.500000 0.452500 0.7725 0.7725 0.7725
v -0.500000 0.450000 0.452500 1.0000 1.0000 1.0000
v -0.500000 -0.452500 0.452500 1.0000 1.0000 1.0000
v 0.500000 -0.452500 0.452500 1.0000 1.0000 1.0000
v -0.450000 -0.500000 -0.500000 0.7725 0.7725 0.7725
v -0.450000 0.500000 0.500000 0.7725 0.7725 0.7725
v -0.450000 -0.500000 0.500000 0.7725 0.7725 0.7725
v -0.450000 0.500000 -0.500000 0.7725 0.7725 0.7725
v -0.450000 0.450000 -0.500000 1.0000 1.0000 1.0000
v -0.450000 0.450000 0.500000 1.0000 1.0000 1.0000
v -0.450000 -0.500000 -0.450000 1.0000 1.0000 1.0000
v -0.450000 0.500000 -0.450000 1.0000 1.0000 1.0000
v -0.450000 -0.452500 0.500000 1.0000 1.0000 1.0000
v -0.450000 -0.452500 -0.500000 1.0000 1.0000 1.0000
v -0.450000 -0.500000 0.452500 1.0000 1.0000 1.0000
v -0.450000 0.500000 0.452500 1.0000 1.0000 1.0000
v 0.452500 -0.500000 0.500000 0.7725 0.7725 0.7725
v 0.452500 0.500000 -0.500000 0.7725 0.7725 0.7725
v 0.452500 0.450000 -0.500000 1.0000 1.0000 1.0000
v 0.452500 0.500000 -0.450000 1.0000 1.0000 1.0000
v 0.452500 -0.452500 -0.500000 1.0000 1.0000 1.0000
v 0.452500 0.500000 0.452500 1.0000 1.0000 1.0000
v 0.452500 -0.500000 -0.500000 0.7725 0.7725 0.7725
v 0.452500 0.500000 0.500000 0.7725 0.7725 0.7725
v 0.452500 0.450000 0.500000 1.0000 1.0000 1.0000
v 0.452500 -0.500000 -0.450000 1.0000 1.0000 1.0000
v 0.452500 -0.452500 0.500000 1.0000 1.0000 1.0000
v 0.452500 -0.500000 0.452500 1.0000 1.0000 1.0000
vn -0.0000 1.0000 -0.0000
vn -0.0000 -0.0000 1.0000
vn -1.0000 -0.0000 -0.0000
vn -0.0000 -1.0000 -0.0000
vn 1.0000 -0.0000 -0.0000
vn -0.0000 -0.0000 -1.0000
vt 0.875000 0.738125
vt 0.862500 0.750000
vt 0.862500 0.738125
vt 0.625000 0.987500
vt 0.612500 1.000000
vt 0.612500 0.987500
vt 0.625000 0.237500
vt 0.612500 0.250000
vt 0.612500 0.237500
vt 0.375000 0.738125
vt 0.363125 0.750000
vt 0.363125 0.738125
vt 0.625000 0.738125
vt 0.612500 0.750000
vt 0.612500 0.738125
vt 0.625000 0.488125
vt 0.612500 0.500000
vt 0.612500 0.488125
vt 0.386875 0.500000
vt 0.386875 0.488125
vt 0.386875 0.750000
vt 0.386875 0.738125
vt 0.386875 0.250000
vt 0.386875 0.237500
vt 0.386875 1.000000
vt 0.386875 0.987500
vt 0.612500 0.011875
vt 0.386875 0.011875
vt 0.386875 0.512500
vt 0.625000 0.500000
vt 0.612500 0.512500
vt 0.375000 0.500000
vt 0.363125 0.512500
vt 0.363125 0.500000
vt 0.625000 0.011875
vt 0.875000 0.500000
vt 0.862500 0.512500
vt 0.862500 0.500000
vt 0.375000 0.512500
vt 0.375000 0.237500
vt 0.375000 0.011875
vt 0.375000 1.000000
vt 0.375000 0.987500
vt 0.375000 0.250000
vt 0.375000 0.750000
vt 0.375000 0.488125
vt 0.386875 0.000000
vt 0.375000 0.000000
vt 0.625000 0.000000
vt 0.612500 0.000000
vt 0.625000 0.512500
vt 0.875000 0.512500
vt 0.636875 0.738125
vt 0.636875 0.512500
vt 0.137500 0.512500
vt 0.125000 0.738125
vt 0.125000 0.512500
vt 0.375000 0.262500
vt 0.386875 0.761875
vt 0.375000 0.761875
vt 0.636875 0.500000
vt 0.137500 0.500000
vt 0.125000 0.500000
vt 0.612500 0.761875
vt 0.386875 0.262500
vt 0.625000 0.250000
vt 0.612500 0.262500
vt 0.137500 0.738125
vt 0.125000 0.750000
vt 0.625000 0.761875
vt 0.636875 0.750000
vt 0.625000 0.750000
vt 0.625000 0.262500
vt 0.137500 0.750000
vt 0.875000 0.750000
vt 0.625000 1.000000
s 0
f 28/1/1 34/2/1 44/3/1
f 34/4/2 10/5/2 38/6/2
f 15/7/3 12/8/3 18/9/3
f 29/10/4 45/11/4 56/12/4
f 26/13/5 11/14/5 27/15/5
f 46/16/6 9/17/6 47/18/6
f 47/18/6 19/19/6 49/20/6
f 27/15/5 20/21/5 32/22/5
f 18/9/3 21/23/3 23/24/3
f 38/6/2 22/25/2 41/26/2
f 30/27/3 23/24/3 31/28/3
f 9/17/5 24/29/5 19/19/5
f 1/30/5 17/31/5 9/17/5
f 2/32/4 54/33/4 51/34/4
f 28/35/3 18/9/3 30/27/3
f 5/36/1 40/37/1 36/38/1
f 19/19/5 16/39/5 2/32/5
f 31/28/3 13/40/3 25/41/3
f 41/26/2 8/42/2 35/43/2
f 23/24/3 6/44/3 13/40/3
f 32/22/5 4/45/5 29/10/5
f 49/20/6 2/32/6 51/46/6
f 24/29/5 29/10/5 16/39/5
f 22/47/3 25/41/3 8/48/3
f 7/49/3 30/27/3 10/50/3
f 10/50/3 31/28/3 22/47/3
f 17/31/5 32/22/5 24/29/5
f 14/51/5 27/15/5 17/31/5
f 16/39/4 56/12/4 54/33/4
f 15/52/1 44/3/1 40/37/1
f 40/37/1 50/53/1 48/54/1
f 39/55/4 25/56/4 13/57/4
f 21/23/6 33/58/6 6/44/6
f 55/59/2 35/43/2 45/60/2
f 36/38/1 48/54/1 46/61/1
f 33/62/4 13/57/4 6/63/4
f 53/64/2 41/26/2 55/59/2
f 12/8/6 42/65/6 21/23/6
f 5/66/6 37/67/6 12/8/6
f 43/68/4 8/69/4 25/56/4
f 52/70/2 38/6/2 53/64/2
f 44/3/1 52/71/1 50/53/1
f 50/53/1 3/72/1 26/13/1
f 3/72/2 53/64/2 11/14/2
f 11/14/2 55/59/2 20/21/2
f 46/61/1 14/51/1 1/30/1
f 20/21/2 45/60/2 4/45/2
f 48/54/1 26/13/1 14/51/1
f 54/33/4 43/68/4 39/55/4
f 42/65/6 51/46/6 33/58/6
f 51/34/4 39/55/4 33/62/4
f 37/67/6 49/20/6 42/65/6
f 36/73/6 47/18/6 37/67/6
f 56/12/4 35/74/4 43/68/4
f 28/1/1 7/75/1 34/2/1
f 34/4/2 7/76/2 10/5/2
f 15/7/3 5/66/3 12/8/3
f 29/10/4 4/45/4 45/11/4
f 26/13/5 3/72/5 11/14/5
f 46/16/6 1/30/6 9/17/6
f 47/18/6 9/17/6 19/19/6
f 27/15/5 11/14/5 20/21/5
f 18/9/3 12/8/3 21/23/3
f 38/6/2 10/5/2 22/25/2
f 30/27/3 18/9/3 23/24/3
f 9/17/5 17/31/5 24/29/5
f 1/30/5 14/51/5 17/31/5
f 2/32/4 16/39/4 54/33/4
f 28/35/3 15/7/3 18/9/3
f 5/36/1 15/52/1 40/37/1
f 19/19/5 24/29/5 16/39/5
f 31/28/3 23/24/3 13/40/3
f 41/26/2 22/25/2 8/42/2
f 23/24/3 21/23/3 6/44/3
f 32/22/5 20/21/5 4/45/5
f 49/20/6 19/19/6 2/32/6
f 24/29/5 32/22/5 29/10/5
f 22/47/3 31/28/3 25/41/3
f 7/49/3 28/35/3 30/27/3
f 10/50/3 30/27/3 31/28/3
f 17/31/5 27/15/5 32/22/5
f 14/51/5 26/13/5 27/15/5
f 16/39/4 29/10/4 56/12/4
f 15/52/1 28/1/1 44/3/1
f 40/37/1 44/3/1 50/53/1
f 39/55/4 43/68/4 25/56/4
f 21/23/6 42/65/6 33/58/6
f 55/59/2 41/26/2 35/43/2
f 36/38/1 40/37/1 48/54/1
f 33/62/4 39/55/4 13/57/4
f 53/64/2 38/6/2 41/26/2
f 12/8/6 37/67/6 42/65/6
f 5/66/6 36/73/6 37/67/6
f 43/68/4 35/74/4 8/69/4
f 52/70/2 34/4/2 38/6/2
f 44/3/1 34/2/1 52/71/1
f 50/53/1 52/71/1 3/72/1
f 3/72/2 52/70/2 53/64/2
f 11/14/2 53/64/2 55/59/2
f 46/61/1 48/54/1 14/51/1
f 20/21/2 55/59/2 45/60/2
f 48/54/1 50/53/1 26/13/1
f 54/33/4 56/12/4 43/68/4
f 42/65/6 49/20/6 51/46/6
f 51/34/4 54/33/4 39/55/4
f 37/67/6 47/18/6 49/20/6
f 36/73/6 46/16/6 47/18/6
f 56/12/4 45/11/4 35/74/4
